<svg xmlns="http://www.w3.org/2000/svg" viewBox="0 0 1274 1274"><defs><style>.cls-1{isolation:isolate;}.cls-2{fill:#00b2e3;}.cls-3{fill:#385cad;}.cls-4{fill:#4060aa;}.cls-4,.cls-5{mix-blend-mode:multiply;}.cls-5{fill:#61c8e4;}</style></defs><title>Mesa de trabajo 1</title><g class="cls-1"><g id="Capa_1" data-name="Capa 1"><g id="_Grupo_" data-name="&lt;Grupo&gt;"><path id="_Trazado_compuesto_" data-name="&lt;Trazado compuesto&gt;" class="cls-2" d="M637,1274C285.76,1274,0,988.24,0,637S285.76,0,637,0s637,285.76,637,637S988.24,1274,637,1274ZM637,43C309.47,43,43,309.47,43,637s266.46,594,594,594,594-266.46,594-594S964.52,43,637,43Z"/><path id="_Trazado_" data-name="&lt;Trazado&gt;" class="cls-3" d="M1095.93,741.06c-23.48-12-46.86-13.16-52.23-2.64-4,7.77,3,19.74,16.37,30.29-83.77,142.4-236.82,239.9-413.79,244.49C461.62,1018,297.81,920.36,209,772.21c15.73-12.13,24.07-26.39,19.23-34.77-5.91-10.23-29.2-7.84-52,5.34s-36.53,32.17-30.62,42.4c4.1,7.11,16.66,8,31.57,3.53,95,159.92,271.29,265.45,470.09,260.29,190.36-4.93,354.92-110.12,444.57-263.58,17.59,5.59,32.75,4.59,36.93-3.61C1134.09,771.29,1119.41,753,1095.93,741.06Z"/><g id="_Grupo_2" data-name="&lt;Grupo&gt;"><g id="_Grupo_3" data-name="&lt;Grupo&gt;"><path id="_Trazado_compuesto_2" data-name="&lt;Trazado compuesto&gt;" class="cls-2" d="M635,663.37v1.74q0,7.82-10.09,7.82H532.6q-12,0-12.5-9.56L506.65,536.92,476.37,663.37a15.52,15.52,0,0,1-3.84,6.52,9,9,0,0,1-6.73,3H380.26a11,11,0,0,1-7.21-2.82,10.19,10.19,0,0,1-3.85-6.74L338.44,537.79l-13,125.58q-.48,9.57-12,9.56H221.18q-10.08,0-10.09-8.26v-1.3l32.68-303.31a13.93,13.93,0,0,1,3.84-6.74c1.93-1.88,4.64-2.83,8.18-2.83h112q10.1,0,14.42,9.57l40.36,151.65,41.33-151.65q2.89-9.56,14.42-9.57h111.5a12.1,12.1,0,0,1,8.41,2.83,13.26,13.26,0,0,1,4.08,6.74Z"/><path id="_Trazado_compuesto_3" data-name="&lt;Trazado compuesto&gt;" class="cls-4" d="M886.41,663.26q3.36,9.57-6.25,9.56H787.89q-11.53,0-15.86-9.56l-13-37.37H656.21l-13,37.37q-4.34,9.57-15.86,9.56h-91.8q-10.08,0-6.72-9.56L648,360a13.31,13.31,0,0,1,4.57-6.52,11.43,11.43,0,0,1,7.44-3h95.16a11.45,11.45,0,0,1,7.45,3,13.45,13.45,0,0,1,4.57,6.52ZM685,545.93h45.18L707.63,463.8Z"/><path id="_Trazado_2" data-name="&lt;Trazado&gt;" class="cls-5" d="M1053.73,526A82.51,82.51,0,0,0,1028,497.77q-16.58-11.52-39.26-19.34t-50.23-15.21q-7.14-1.73-14.78-3.48a95.09,95.09,0,0,1-13.77-4.13,32.38,32.38,0,0,1-10.2-6.08,11.59,11.59,0,0,1-4.08-8.91q0-9.56,8.41-12.82a49.82,49.82,0,0,1,18.11-3.26q11.21,0,26,5.65a111,111,0,0,1,26.52,14.34A39.69,39.69,0,0,0,988,451.05q6.63,1.74,12.75-4.35L1043.53,405q6.12-6.08,7.9-11.52T1049.14,382q-29.07-25.2-62.21-33.9c-6.56-1.72-13.33-3.1-20.2-4.31V327.93a6.83,6.83,0,0,0-6.52-7.07H879.64a6.84,6.84,0,0,0-6.53,7.07v15c-5.19.91-10.28,1.95-15.18,3.22q-26,6.74-44.36,18.9T785,394.34a73,73,0,0,0-10.2,38,115,115,0,0,0,5.1,34.55q5.08,16.3,18.36,30.42T835,523q23.44,11.52,60.16,19.77h-1q24,5.65,32.38,12.39t8.41,12.38q0,16.95-25,17a55.64,55.64,0,0,1-18.1-3,99.39,99.39,0,0,1-17.59-8q-8.68-5-17.85-11.08T837,550.13q-9.67-5.22-13-5.22t-10.45,4.79l-51.5,50.4q-6.63,6.09-6.12,9.35t9.18,10.64a232.86,232.86,0,0,0,29.32,20.21,250.86,250.86,0,0,0,35.18,17.16,247,247,0,0,0,38.5,11.74c1.67.36,3.32.63,5,.95v9.68a6.84,6.84,0,0,0,6.53,7.07h80.57a6.83,6.83,0,0,0,6.52-7.07V667c.69-.16,1.42-.27,2.1-.44q28.3-6.95,49.21-20.64a105,105,0,0,0,32.88-33.46q12-19.77,12-45Q1062.9,542.75,1053.73,526Z"/></g></g></g></g></g></svg>